<svg xmlns="http://www.w3.org/2000/svg" xmlns:xlink="http://www.w3.org/1999/xlink" width="1500" zoomAndPan="magnify" viewBox="0 0 1125 374.999991" height="500" preserveAspectRatio="xMidYMid meet" version="1.0"><defs><g/></defs><rect x="-112.5" width="1350" fill="#ffffff" y="-37.499999" height="449.999989" fill-opacity="1"/><rect x="-112.5" width="1350" fill="#ffffff" y="-37.499999" height="449.999989" fill-opacity="1"/><path fill="#ffffff" d="M 66.671875 230.554688 L 68.328125 232.191406 L 68.492188 232.359375 C 73.640625 237.691406 73.585938 246.28125 68.328125 251.542969 C 63.066406 256.800781 54.476562 256.859375 49.144531 251.707031 L 48.976562 251.542969 L 47.320312 249.90625 L 42.816406 245.378906 C 37.5 240.066406 37.5 231.363281 42.816406 226.03125 C 48.132812 220.714844 56.847656 220.714844 62.164062 226.03125 Z M 157.9375 155.695312 L 159.539062 154.09375 L 161.378906 152.257812 L 178.242188 135.390625 C 183.558594 130.074219 183.558594 121.375 178.242188 116.039062 C 172.910156 110.726562 164.210938 110.726562 158.894531 116.039062 L 140.1875 134.746094 L 138.589844 136.347656 L 128.914062 146.019531 C 123.597656 151.335938 123.597656 160.035156 128.914062 165.371094 L 138.589844 175.046875 L 140.316406 176.757812 L 159.023438 195.460938 C 164.339844 200.777344 173.039062 200.777344 178.371094 195.460938 C 183.6875 190.144531 183.6875 181.425781 178.371094 176.113281 L 159.667969 157.40625 Z M 43.589844 116.167969 L 43.589844 116.152344 C 48.902344 110.835938 57.621094 110.835938 62.9375 116.152344 L 178.113281 231.347656 C 183.449219 236.660156 183.449219 245.378906 178.113281 250.695312 C 172.800781 256.011719 164.097656 256.011719 158.765625 250.695312 L 43.589844 135.5 C 38.273438 130.183594 38.273438 121.484375 43.589844 116.167969 Z M 43.421875 171.3125 C 48.738281 165.996094 57.4375 165.996094 62.773438 171.3125 L 122.972656 231.511719 C 128.289062 236.828125 128.289062 245.546875 122.972656 250.863281 C 117.636719 256.175781 108.9375 256.175781 103.621094 250.863281 L 84.917969 232.15625 L 43.421875 190.660156 C 38.105469 185.34375 38.105469 176.628906 43.421875 171.3125 Z M 43.421875 171.3125 " fill-opacity="1" fill-rule="evenodd"/><g fill="#ffffff" fill-opacity="1"><g transform="translate(230.148009, 231.280557)"><g><path d="M 48.171875 1.546875 C 39.671875 1.546875 32.242188 -0.382812 25.890625 -4.25 C 19.535156 -8.113281 14.597656 -13.5 11.078125 -20.40625 C 7.554688 -27.320312 5.796875 -35.375 5.796875 -44.5625 C 5.796875 -53.832031 7.617188 -62.007812 11.265625 -69.09375 C 14.921875 -76.175781 20.117188 -81.710938 26.859375 -85.703125 C 33.597656 -89.703125 41.601562 -91.703125 50.875 -91.703125 C 61.4375 -91.703125 70.191406 -89.164062 77.140625 -84.09375 C 84.097656 -79.03125 88.609375 -72.035156 90.671875 -63.109375 L 72.25 -63.109375 C 70.875 -67.316406 68.382812 -70.597656 64.78125 -72.953125 C 61.175781 -75.316406 56.539062 -76.5 50.875 -76.5 C 41.851562 -76.5 34.894531 -73.644531 30 -67.9375 C 25.113281 -62.226562 22.671875 -54.394531 22.671875 -44.4375 C 22.671875 -34.476562 25.09375 -26.769531 29.9375 -21.3125 C 34.789062 -15.863281 41.382812 -13.140625 49.71875 -13.140625 C 57.875 -13.140625 64.03125 -15.347656 68.1875 -19.765625 C 72.351562 -24.191406 74.867188 -30.007812 75.734375 -37.21875 L 52.9375 -37.21875 L 52.9375 -49.59375 L 92.34375 -49.59375 L 92.34375 0 L 77.15625 0 L 75.859375 -11.84375 C 72.941406 -7.550781 69.289062 -4.242188 64.90625 -1.921875 C 60.53125 0.390625 54.953125 1.546875 48.171875 1.546875 Z M 48.171875 1.546875 "/></g></g></g><g fill="#ffffff" fill-opacity="1"><g transform="translate(349.648095, 231.280557)"><g><path d="M 39.546875 1.546875 C 32.929688 1.546875 27.085938 0.410156 22.015625 -1.859375 C 16.953125 -4.140625 12.960938 -7.40625 10.046875 -11.65625 C 7.128906 -15.90625 5.625 -21.078125 5.53125 -27.171875 L 22.921875 -27.171875 C 23.097656 -22.960938 24.625 -19.421875 27.5 -16.546875 C 30.375 -13.671875 34.34375 -12.234375 39.40625 -12.234375 C 43.789062 -12.234375 47.269531 -13.285156 49.84375 -15.390625 C 52.414062 -17.492188 53.703125 -20.304688 53.703125 -23.828125 C 53.703125 -27.515625 52.5625 -30.390625 50.28125 -32.453125 C 48.007812 -34.515625 44.984375 -36.1875 41.203125 -37.46875 C 37.429688 -38.757812 33.398438 -40.132812 29.109375 -41.59375 C 22.148438 -44 16.847656 -47.09375 13.203125 -50.875 C 9.554688 -54.65625 7.734375 -59.675781 7.734375 -65.9375 C 7.640625 -71.257812 8.898438 -75.832031 11.515625 -79.65625 C 14.140625 -83.476562 17.726562 -86.441406 22.28125 -88.546875 C 26.832031 -90.648438 32.070312 -91.703125 38 -91.703125 C 44.007812 -91.703125 49.3125 -90.628906 53.90625 -88.484375 C 58.5 -86.335938 62.101562 -83.332031 64.71875 -79.46875 C 67.34375 -75.601562 68.738281 -71.007812 68.90625 -65.6875 L 51.265625 -65.6875 C 51.171875 -68.863281 49.941406 -71.675781 47.578125 -74.125 C 45.222656 -76.570312 41.941406 -77.796875 37.734375 -77.796875 C 34.128906 -77.878906 31.101562 -77 28.65625 -75.15625 C 26.207031 -73.3125 24.984375 -70.628906 24.984375 -67.109375 C 24.984375 -64.097656 25.925781 -61.710938 27.8125 -59.953125 C 29.707031 -58.191406 32.285156 -56.707031 35.546875 -55.5 C 38.804688 -54.300781 42.539062 -53.015625 46.75 -51.640625 C 51.21875 -50.097656 55.296875 -48.296875 58.984375 -46.234375 C 62.679688 -44.171875 65.644531 -41.441406 67.875 -38.046875 C 70.101562 -34.660156 71.21875 -30.304688 71.21875 -24.984375 C 71.21875 -20.265625 70.015625 -15.882812 67.609375 -11.84375 C 65.210938 -7.8125 61.648438 -4.570312 56.921875 -2.125 C 52.203125 0.320312 46.410156 1.546875 39.546875 1.546875 Z M 39.546875 1.546875 "/></g></g></g><g fill="#ffffff" fill-opacity="1"><g transform="translate(446.485941, 231.280557)"><g><path d="M 29.75 0 L 29.75 -76.890625 L 3.484375 -76.890625 L 3.484375 -90.15625 L 72.640625 -90.15625 L 72.640625 -76.890625 L 46.234375 -76.890625 L 46.234375 0 Z M 29.75 0 "/></g></g></g><g fill="#ffffff" fill-opacity="1"><g transform="translate(542.551236, 231.280557)"><g><path d="M 8.765625 0 L 8.765625 -90.15625 L 67.625 -90.15625 L 67.625 -76.890625 L 25.25 -76.890625 L 25.25 -52.15625 L 63.75 -52.15625 L 63.75 -39.28125 L 25.25 -39.28125 L 25.25 -13.265625 L 67.625 -13.265625 L 67.625 0 Z M 8.765625 0 "/></g></g></g><g fill="#ffffff" fill-opacity="1"><g transform="translate(636.94262, 231.280557)"><g><path d="M 49.59375 1.546875 C 40.488281 1.546875 32.671875 -0.40625 26.140625 -4.3125 C 19.617188 -8.21875 14.597656 -13.671875 11.078125 -20.671875 C 7.554688 -27.671875 5.796875 -35.765625 5.796875 -44.953125 C 5.796875 -54.140625 7.554688 -62.253906 11.078125 -69.296875 C 14.597656 -76.335938 19.617188 -81.832031 26.140625 -85.78125 C 32.671875 -89.726562 40.488281 -91.703125 49.59375 -91.703125 C 60.40625 -91.703125 69.265625 -89.019531 76.171875 -83.65625 C 83.085938 -78.289062 87.40625 -70.753906 89.125 -61.046875 L 70.96875 -61.046875 C 69.851562 -65.941406 67.46875 -69.785156 63.8125 -72.578125 C 60.164062 -75.367188 55.335938 -76.765625 49.328125 -76.765625 C 40.992188 -76.765625 34.46875 -73.929688 29.75 -68.265625 C 25.03125 -62.597656 22.671875 -54.828125 22.671875 -44.953125 C 22.671875 -35.078125 25.03125 -27.328125 29.75 -21.703125 C 34.46875 -16.078125 40.992188 -13.265625 49.328125 -13.265625 C 55.335938 -13.265625 60.164062 -14.570312 63.8125 -17.1875 C 67.46875 -19.8125 69.851562 -23.441406 70.96875 -28.078125 L 89.125 -28.078125 C 87.40625 -18.804688 83.085938 -11.550781 76.171875 -6.3125 C 69.265625 -1.070312 60.40625 1.546875 49.59375 1.546875 Z M 49.59375 1.546875 "/></g></g></g><g fill="#ffffff" fill-opacity="1"><g transform="translate(751.807258, 231.280557)"><g><path d="M 8.765625 0 L 8.765625 -90.15625 L 25.25 -90.15625 L 25.25 -52.671875 L 65.6875 -52.671875 L 65.6875 -90.15625 L 82.171875 -90.15625 L 82.171875 0 L 65.6875 0 L 65.6875 -39.28125 L 25.25 -39.28125 L 25.25 0 Z M 8.765625 0 "/></g></g></g><g fill="#ffffff" fill-opacity="1"><g transform="translate(862.680256, 231.280557)"><g><path d="M 8.765625 0 L 8.765625 -90.15625 L 25.25 -90.15625 L 67.625 -26.65625 L 67.625 -90.15625 L 84.109375 -90.15625 L 84.109375 0 L 67.625 0 L 25.25 -63.375 L 25.25 0 Z M 8.765625 0 "/></g></g></g><g fill="#ffffff" fill-opacity="1"><g transform="translate(975.484627, 231.280557)"><g><path d="M 51 1.546875 C 41.988281 1.546875 34.113281 -0.425781 27.375 -4.375 C 20.632812 -8.320312 15.351562 -13.796875 11.53125 -20.796875 C 7.707031 -27.796875 5.796875 -35.890625 5.796875 -45.078125 C 5.796875 -54.265625 7.707031 -62.359375 11.53125 -69.359375 C 15.351562 -76.359375 20.632812 -81.832031 27.375 -85.78125 C 34.113281 -89.726562 41.988281 -91.703125 51 -91.703125 C 59.925781 -91.703125 67.78125 -89.726562 74.5625 -85.78125 C 81.351562 -81.832031 86.632812 -76.359375 90.40625 -69.359375 C 94.1875 -62.359375 96.078125 -54.265625 96.078125 -45.078125 C 96.078125 -35.890625 94.1875 -27.796875 90.40625 -20.796875 C 86.632812 -13.796875 81.351562 -8.320312 74.5625 -4.375 C 67.78125 -0.425781 59.925781 1.546875 51 1.546875 Z M 51 -13.265625 C 59.59375 -13.265625 66.441406 -16.097656 71.546875 -21.765625 C 76.648438 -27.429688 79.203125 -35.203125 79.203125 -45.078125 C 79.203125 -54.953125 76.648438 -62.722656 71.546875 -68.390625 C 66.441406 -74.054688 59.59375 -76.890625 51 -76.890625 C 42.414062 -76.890625 35.546875 -74.054688 30.390625 -68.390625 C 25.242188 -62.722656 22.671875 -54.953125 22.671875 -45.078125 C 22.671875 -35.203125 25.242188 -27.429688 30.390625 -21.765625 C 35.546875 -16.097656 42.414062 -13.265625 51 -13.265625 Z M 51 -13.265625 "/></g></g></g></svg>